<mxfile host="Electron" agent="Mozilla/5.0 (Macintosh; Intel Mac OS X 10_15_7) AppleWebKit/537.36 (KHTML, like Gecko) draw.io/27.0.5 Chrome/134.0.6998.205 Electron/35.3.0 Safari/537.36" version="27.0.5">
  <diagram name="Page-1" id="xwflj73ZvZ7Tb7ULyYQ-">
    <mxGraphModel dx="1234" dy="798" grid="1" gridSize="10" guides="1" tooltips="1" connect="1" arrows="1" fold="1" page="0" pageScale="1" pageWidth="850" pageHeight="1100" math="0" shadow="0">
      <root>
        <mxCell id="0" />
        <mxCell id="1" parent="0" />
        <mxCell id="xdo0dCjmJiGK_zv5ryol-1" value="AWS Cloud" style="points=[[0,0],[0.25,0],[0.5,0],[0.75,0],[1,0],[1,0.25],[1,0.5],[1,0.75],[1,1],[0.75,1],[0.5,1],[0.25,1],[0,1],[0,0.75],[0,0.5],[0,0.25]];outlineConnect=0;gradientColor=none;html=1;whiteSpace=wrap;fontSize=12;fontStyle=0;container=1;pointerEvents=0;collapsible=0;recursiveResize=0;shape=mxgraph.aws4.group;grIcon=mxgraph.aws4.group_aws_cloud_alt;strokeColor=#232F3E;fillColor=none;verticalAlign=top;align=left;spacingLeft=30;fontColor=#232F3E;dashed=0;" vertex="1" parent="1">
          <mxGeometry x="90" y="140" width="660" height="480" as="geometry" />
        </mxCell>
        <mxCell id="xdo0dCjmJiGK_zv5ryol-2" value="Region" style="points=[[0,0],[0.25,0],[0.5,0],[0.75,0],[1,0],[1,0.25],[1,0.5],[1,0.75],[1,1],[0.75,1],[0.5,1],[0.25,1],[0,1],[0,0.75],[0,0.5],[0,0.25]];outlineConnect=0;gradientColor=none;html=1;whiteSpace=wrap;fontSize=12;fontStyle=0;container=1;pointerEvents=0;collapsible=0;recursiveResize=0;shape=mxgraph.aws4.group;grIcon=mxgraph.aws4.group_region;strokeColor=#00A4A6;fillColor=none;verticalAlign=top;align=left;spacingLeft=30;fontColor=#147EBA;dashed=1;" vertex="1" parent="xdo0dCjmJiGK_zv5ryol-1">
          <mxGeometry x="10" y="30" width="640" height="440" as="geometry" />
        </mxCell>
        <mxCell id="xdo0dCjmJiGK_zv5ryol-3" value="Node.js Function" style="sketch=0;outlineConnect=0;fontColor=#232F3E;gradientColor=none;fillColor=#ED7100;strokeColor=none;dashed=0;verticalLabelPosition=bottom;verticalAlign=top;align=center;html=1;fontSize=12;fontStyle=0;aspect=fixed;pointerEvents=1;shape=mxgraph.aws4.lambda_function;" vertex="1" parent="xdo0dCjmJiGK_zv5ryol-2">
          <mxGeometry x="560" y="30" width="48" height="48" as="geometry" />
        </mxCell>
        <mxCell id="xdo0dCjmJiGK_zv5ryol-4" value="Deno Function" style="sketch=0;outlineConnect=0;fontColor=#232F3E;gradientColor=none;fillColor=#ED7100;strokeColor=none;dashed=0;verticalLabelPosition=bottom;verticalAlign=top;align=center;html=1;fontSize=12;fontStyle=0;aspect=fixed;pointerEvents=1;shape=mxgraph.aws4.lambda_function;" vertex="1" parent="xdo0dCjmJiGK_zv5ryol-2">
          <mxGeometry x="560" y="120" width="48" height="48" as="geometry" />
        </mxCell>
        <mxCell id="xdo0dCjmJiGK_zv5ryol-5" value="Bun Function" style="sketch=0;outlineConnect=0;fontColor=#232F3E;gradientColor=none;fillColor=#ED7100;strokeColor=none;dashed=0;verticalLabelPosition=bottom;verticalAlign=top;align=center;html=1;fontSize=12;fontStyle=0;aspect=fixed;pointerEvents=1;shape=mxgraph.aws4.lambda_function;" vertex="1" parent="xdo0dCjmJiGK_zv5ryol-2">
          <mxGeometry x="560" y="210" width="48" height="48" as="geometry" />
        </mxCell>
        <mxCell id="xdo0dCjmJiGK_zv5ryol-10" style="edgeStyle=orthogonalEdgeStyle;rounded=0;orthogonalLoop=1;jettySize=auto;html=1;dashed=1;" edge="1" parent="xdo0dCjmJiGK_zv5ryol-2" source="xdo0dCjmJiGK_zv5ryol-7" target="xdo0dCjmJiGK_zv5ryol-3">
          <mxGeometry relative="1" as="geometry" />
        </mxCell>
        <mxCell id="xdo0dCjmJiGK_zv5ryol-7" value="Node.js SQS Queue" style="sketch=0;outlineConnect=0;fontColor=#232F3E;gradientColor=none;fillColor=#E7157B;strokeColor=none;dashed=0;verticalLabelPosition=bottom;verticalAlign=top;align=center;html=1;fontSize=12;fontStyle=0;aspect=fixed;pointerEvents=1;shape=mxgraph.aws4.queue;points=[[0,0.5,0,0,0]];" vertex="1" parent="xdo0dCjmJiGK_zv5ryol-2">
          <mxGeometry x="400" y="31" width="78" height="47" as="geometry" />
        </mxCell>
        <mxCell id="xdo0dCjmJiGK_zv5ryol-11" style="edgeStyle=orthogonalEdgeStyle;rounded=0;orthogonalLoop=1;jettySize=auto;html=1;dashed=1;" edge="1" parent="xdo0dCjmJiGK_zv5ryol-2" source="xdo0dCjmJiGK_zv5ryol-8" target="xdo0dCjmJiGK_zv5ryol-4">
          <mxGeometry relative="1" as="geometry" />
        </mxCell>
        <mxCell id="xdo0dCjmJiGK_zv5ryol-8" value="Deno SQS Queue" style="sketch=0;outlineConnect=0;fontColor=#232F3E;gradientColor=none;fillColor=#E7157B;strokeColor=none;dashed=0;verticalLabelPosition=bottom;verticalAlign=top;align=center;html=1;fontSize=12;fontStyle=0;aspect=fixed;pointerEvents=1;shape=mxgraph.aws4.queue;points=[[0,0.5,0,0,0]];" vertex="1" parent="xdo0dCjmJiGK_zv5ryol-2">
          <mxGeometry x="400" y="120" width="78" height="47" as="geometry" />
        </mxCell>
        <mxCell id="xdo0dCjmJiGK_zv5ryol-12" style="edgeStyle=orthogonalEdgeStyle;rounded=0;orthogonalLoop=1;jettySize=auto;html=1;dashed=1;" edge="1" parent="xdo0dCjmJiGK_zv5ryol-2" source="xdo0dCjmJiGK_zv5ryol-9" target="xdo0dCjmJiGK_zv5ryol-5">
          <mxGeometry relative="1" as="geometry" />
        </mxCell>
        <mxCell id="xdo0dCjmJiGK_zv5ryol-9" value="Bun SQS Queue" style="sketch=0;outlineConnect=0;fontColor=#232F3E;gradientColor=none;fillColor=#E7157B;strokeColor=none;dashed=0;verticalLabelPosition=bottom;verticalAlign=top;align=center;html=1;fontSize=12;fontStyle=0;aspect=fixed;pointerEvents=1;shape=mxgraph.aws4.queue;points=[[0,0.5,0,0,0]];" vertex="1" parent="xdo0dCjmJiGK_zv5ryol-2">
          <mxGeometry x="400" y="210" width="78" height="47" as="geometry" />
        </mxCell>
        <mxCell id="xdo0dCjmJiGK_zv5ryol-6" value="Test Handler&lt;br&gt;Function" style="sketch=0;outlineConnect=0;fontColor=#232F3E;gradientColor=none;fillColor=#ED7100;strokeColor=none;dashed=0;verticalLabelPosition=bottom;verticalAlign=top;align=center;html=1;fontSize=12;fontStyle=0;aspect=fixed;pointerEvents=1;shape=mxgraph.aws4.lambda_function;" vertex="1" parent="xdo0dCjmJiGK_zv5ryol-2">
          <mxGeometry x="150" y="119.5" width="48" height="48" as="geometry" />
        </mxCell>
        <mxCell id="xdo0dCjmJiGK_zv5ryol-16" style="edgeStyle=orthogonalEdgeStyle;rounded=0;orthogonalLoop=1;jettySize=auto;html=1;dashed=1;" edge="1" parent="xdo0dCjmJiGK_zv5ryol-2" source="xdo0dCjmJiGK_zv5ryol-13" target="xdo0dCjmJiGK_zv5ryol-6">
          <mxGeometry relative="1" as="geometry" />
        </mxCell>
        <mxCell id="xdo0dCjmJiGK_zv5ryol-13" value="Scheduled Rule&lt;br&gt;(Every 3 Hours)" style="sketch=0;outlineConnect=0;fontColor=#232F3E;gradientColor=none;fillColor=#E7157B;strokeColor=none;dashed=0;verticalLabelPosition=bottom;verticalAlign=top;align=center;html=1;fontSize=12;fontStyle=0;aspect=fixed;pointerEvents=1;shape=mxgraph.aws4.rule_3;" vertex="1" parent="xdo0dCjmJiGK_zv5ryol-2">
          <mxGeometry x="10" y="109.5" width="78" height="68" as="geometry" />
        </mxCell>
        <mxCell id="xdo0dCjmJiGK_zv5ryol-18" style="edgeStyle=orthogonalEdgeStyle;rounded=0;orthogonalLoop=1;jettySize=auto;html=1;entryX=0;entryY=0.5;entryDx=0;entryDy=0;entryPerimeter=0;dashed=1;" edge="1" parent="xdo0dCjmJiGK_zv5ryol-2" source="xdo0dCjmJiGK_zv5ryol-6" target="xdo0dCjmJiGK_zv5ryol-7">
          <mxGeometry relative="1" as="geometry" />
        </mxCell>
        <mxCell id="xdo0dCjmJiGK_zv5ryol-19" style="edgeStyle=orthogonalEdgeStyle;rounded=0;orthogonalLoop=1;jettySize=auto;html=1;entryX=0;entryY=0.5;entryDx=0;entryDy=0;entryPerimeter=0;dashed=1;" edge="1" parent="xdo0dCjmJiGK_zv5ryol-2" source="xdo0dCjmJiGK_zv5ryol-6" target="xdo0dCjmJiGK_zv5ryol-8">
          <mxGeometry relative="1" as="geometry" />
        </mxCell>
        <mxCell id="xdo0dCjmJiGK_zv5ryol-20" style="edgeStyle=orthogonalEdgeStyle;rounded=0;orthogonalLoop=1;jettySize=auto;html=1;entryX=0;entryY=0.5;entryDx=0;entryDy=0;entryPerimeter=0;dashed=1;" edge="1" parent="xdo0dCjmJiGK_zv5ryol-2" source="xdo0dCjmJiGK_zv5ryol-6" target="xdo0dCjmJiGK_zv5ryol-9">
          <mxGeometry relative="1" as="geometry" />
        </mxCell>
        <mxCell id="xdo0dCjmJiGK_zv5ryol-15" value="CloudWatch&lt;br&gt;Logs &amp;amp; Dashboard" style="sketch=0;points=[[0,0,0],[0.25,0,0],[0.5,0,0],[0.75,0,0],[1,0,0],[0,1,0],[0.25,1,0],[0.5,1,0],[0.75,1,0],[1,1,0],[0,0.25,0],[0,0.5,0],[0,0.75,0],[1,0.25,0],[1,0.5,0],[1,0.75,0]];points=[[0,0,0],[0.25,0,0],[0.5,0,0],[0.75,0,0],[1,0,0],[0,1,0],[0.25,1,0],[0.5,1,0],[0.75,1,0],[1,1,0],[0,0.25,0],[0,0.5,0],[0,0.75,0],[1,0.25,0],[1,0.5,0],[1,0.75,0]];outlineConnect=0;fontColor=#232F3E;fillColor=#E7157B;strokeColor=#ffffff;dashed=0;verticalLabelPosition=bottom;verticalAlign=top;align=center;html=1;fontSize=12;fontStyle=0;aspect=fixed;shape=mxgraph.aws4.resourceIcon;resIcon=mxgraph.aws4.cloudwatch_2;" vertex="1" parent="xdo0dCjmJiGK_zv5ryol-2">
          <mxGeometry x="40" y="310" width="78" height="78" as="geometry" />
        </mxCell>
        <mxCell id="xdo0dCjmJiGK_zv5ryol-22" value="1" style="ellipse;whiteSpace=wrap;html=1;aspect=fixed;fontSize=16;fontStyle=1;verticalAlign=middle;fillColor=#647687;fontColor=#ffffff;strokeColor=#314354;" vertex="1" parent="xdo0dCjmJiGK_zv5ryol-2">
          <mxGeometry x="63" y="78" width="32" height="32" as="geometry" />
        </mxCell>
        <mxCell id="xdo0dCjmJiGK_zv5ryol-21" value="2" style="ellipse;whiteSpace=wrap;html=1;aspect=fixed;fontSize=16;fontStyle=1;verticalAlign=middle;fillColor=#647687;fontColor=#ffffff;strokeColor=#314354;" vertex="1" parent="xdo0dCjmJiGK_zv5ryol-2">
          <mxGeometry x="198" y="78" width="32" height="32" as="geometry" />
        </mxCell>
        <mxCell id="xdo0dCjmJiGK_zv5ryol-24" value="3" style="ellipse;whiteSpace=wrap;html=1;aspect=fixed;fontSize=16;fontStyle=1;verticalAlign=middle;fillColor=#647687;fontColor=#ffffff;strokeColor=#314354;" vertex="1" parent="xdo0dCjmJiGK_zv5ryol-2">
          <mxGeometry x="500" y="10" width="32" height="32" as="geometry" />
        </mxCell>
        <mxCell id="xdo0dCjmJiGK_zv5ryol-26" value="4" style="ellipse;whiteSpace=wrap;html=1;aspect=fixed;fontSize=16;fontStyle=1;verticalAlign=middle;fillColor=#647687;fontColor=#ffffff;strokeColor=#314354;" vertex="1" parent="xdo0dCjmJiGK_zv5ryol-2">
          <mxGeometry x="130" y="310" width="32" height="32" as="geometry" />
        </mxCell>
        <mxCell id="xdo0dCjmJiGK_zv5ryol-27" value="&lt;span style=&quot;font-size: 14px; background-color: transparent; color: light-dark(rgb(0, 0, 0), rgb(255, 255, 255));&quot;&gt;Every three hours, an EventBridge rule invokes a Lambda function three times with different event details.&lt;/span&gt;&lt;div&gt;&lt;span style=&quot;font-size: 14px;&quot;&gt;&lt;br&gt;&lt;/span&gt;&lt;span style=&quot;font-size: 14px; background-color: transparent; color: light-dark(rgb(0, 0, 0), rgb(255, 255, 255));&quot;&gt;The Lambda function sends 30 messages to an SQS queue with a steadily increasing delay on each message from zero seconds up to 5 minutes. The target SQS queue varies based on the event details the Lambda handler is invoked with.&lt;/span&gt;&lt;/div&gt;&lt;div&gt;&lt;span style=&quot;font-size: 14px;&quot;&gt;&lt;br&gt;&lt;/span&gt;&lt;span style=&quot;font-size: 14px; background-color: transparent; color: light-dark(rgb(0, 0, 0), rgb(255, 255, 255));&quot;&gt;As messages become available on the SQS queues, Lambda functions are invoked and generate hashes as a test of performance. Metrics are logged to CloudWatch Logs.&lt;br&gt;&lt;/span&gt;&lt;br&gt;&lt;span style=&quot;font-size: 14px; background-color: transparent; color: light-dark(rgb(0, 0, 0), rgb(255, 255, 255));&quot;&gt;Using the metrics available in CloudWatch Logs, a Dashboard shows statistics based on the Lambda functions&#39; performance.&lt;/span&gt;&lt;/div&gt;" style="text;html=1;whiteSpace=wrap;overflow=hidden;rounded=0;font-size 14px;" vertex="1" parent="1">
          <mxGeometry x="800" y="140" width="270" height="350" as="geometry" />
        </mxCell>
        <mxCell id="xdo0dCjmJiGK_zv5ryol-28" value="1" style="ellipse;whiteSpace=wrap;html=1;aspect=fixed;fontSize=16;fontStyle=1;verticalAlign=middle;fillColor=#647687;fontColor=#ffffff;strokeColor=#314354;" vertex="1" parent="1">
          <mxGeometry x="760" y="150" width="32" height="32" as="geometry" />
        </mxCell>
        <mxCell id="xdo0dCjmJiGK_zv5ryol-29" value="2" style="ellipse;whiteSpace=wrap;html=1;aspect=fixed;fontSize=16;fontStyle=1;verticalAlign=middle;fillColor=#647687;fontColor=#ffffff;strokeColor=#314354;" vertex="1" parent="1">
          <mxGeometry x="760" y="216" width="32" height="32" as="geometry" />
        </mxCell>
        <mxCell id="xdo0dCjmJiGK_zv5ryol-30" value="3" style="ellipse;whiteSpace=wrap;html=1;aspect=fixed;fontSize=16;fontStyle=1;verticalAlign=middle;fillColor=#647687;fontColor=#ffffff;strokeColor=#314354;" vertex="1" parent="1">
          <mxGeometry x="760" y="335" width="32" height="32" as="geometry" />
        </mxCell>
        <mxCell id="xdo0dCjmJiGK_zv5ryol-31" value="4" style="ellipse;whiteSpace=wrap;html=1;aspect=fixed;fontSize=16;fontStyle=1;verticalAlign=middle;fillColor=#647687;fontColor=#ffffff;strokeColor=#314354;" vertex="1" parent="1">
          <mxGeometry x="760" y="433" width="32" height="32" as="geometry" />
        </mxCell>
      </root>
    </mxGraphModel>
  </diagram>
</mxfile>
